HIERARCHY
ROOT joint_Root
{
	OFFSET 0.0 0.0 0.0
	CHANNELS 6 Xposition Yposition Zposition Zrotation Xrotation Yrotation 
	JOINT Hips
	{
		OFFSET 4.5925 91.4895 -427.239
		CHANNELS 6 Xposition Yposition Zposition Zrotation Xrotation Yrotation 
		JOINT Spine
		{
			OFFSET 15.7357 0.0 0.0
			CHANNELS 6 Xposition Yposition Zposition Zrotation Xrotation Yrotation 
			JOINT Chest
			{
				OFFSET 8.98455 -0.406207 0.0
				CHANNELS 6 Xposition Yposition Zposition Zrotation Xrotation Yrotation 
				JOINT Neck
				{
					OFFSET 16.3773 0.0 0.0
					CHANNELS 6 Xposition Yposition Zposition Zrotation Xrotation Yrotation 
					JOINT Head
					{
						OFFSET 6.45672 0.0 0.0
						CHANNELS 6 Xposition Yposition Zposition Zrotation Xrotation Yrotation 
						End Site
						{
							OFFSET 0.0 0.0 0.0
						}
					}
				}
				JOINT Shoulder_L
				{
					OFFSET 12.9942 -0.242716 4.98039
					CHANNELS 6 Xposition Yposition Zposition Zrotation Xrotation Yrotation 
					JOINT UpperArm_L
					{
						OFFSET 5.34809 0.0 0.0
						CHANNELS 6 Xposition Yposition Zposition Zrotation Xrotation Yrotation 
						JOINT LowerArm_L
						{
							OFFSET 24.3286 1.87007e-05 0.0
							CHANNELS 6 Xposition Yposition Zposition Zrotation Xrotation Yrotation 
							JOINT Hand_L
							{
								OFFSET 22.2916 0.0 0.0
								CHANNELS 6 Xposition Yposition Zposition Zrotation Xrotation Yrotation 
								End Site
								{
									OFFSET 0.0 0.0 0.0
								}
							}
						}
					}
				}
				JOINT Shoulder_R
				{
					OFFSET 12.9945 -0.242716 -4.98039
					CHANNELS 6 Xposition Yposition Zposition Zrotation Xrotation Yrotation 
					JOINT UpperArm_R
					{
						OFFSET -5.34813 0.0 0.0
						CHANNELS 6 Xposition Yposition Zposition Zrotation Xrotation Yrotation 
						JOINT LowerArm_R
						{
							OFFSET -24.3289 0.000322201 0.0
							CHANNELS 6 Xposition Yposition Zposition Zrotation Xrotation Yrotation 
							JOINT Hand_R
							{
								OFFSET -22.2915 -0.000108084 0.0
								CHANNELS 6 Xposition Yposition Zposition Zrotation Xrotation Yrotation 
								End Site
								{
									OFFSET 0.0 0.0 0.0
								}
							}
						}
					}
				}
			}
		}
		JOINT UpperLeg_L
		{
			OFFSET -2.19248 -6.46944 0.0
			CHANNELS 6 Xposition Yposition Zposition Zrotation Xrotation Yrotation 
			JOINT LowerLeg_L
			{
				OFFSET 39.0811 0.0 -1.23785e-05
				CHANNELS 6 Xposition Yposition Zposition Zrotation Xrotation Yrotation 
				JOINT Foot_L
				{
					OFFSET 40.9854 0.0 -1.26872e-05
					CHANNELS 6 Xposition Yposition Zposition Zrotation Xrotation Yrotation 
					JOINT Toes_L
					{
						OFFSET 11.7543 0.0 0.0
						CHANNELS 6 Xposition Yposition Zposition Zrotation Xrotation Yrotation 
						End Site
						{
							OFFSET 0.0 0.0 0.0
						}
					}
				}
			}
		}
		JOINT UpperLeg_R
		{
			OFFSET -2.19251 6.46944 0.0
			CHANNELS 6 Xposition Yposition Zposition Zrotation Xrotation Yrotation 
			JOINT LowerLeg_R
			{
				OFFSET -39.0811 -0.00228153 -0.0401928
				CHANNELS 6 Xposition Yposition Zposition Zrotation Xrotation Yrotation 
				JOINT Foot_R
				{
					OFFSET -40.9854 0.0 0.0
					CHANNELS 6 Xposition Yposition Zposition Zrotation Xrotation Yrotation 
					JOINT Toes_R
					{
						OFFSET -11.7543 0.0 0.0
						CHANNELS 6 Xposition Yposition Zposition Zrotation Xrotation Yrotation 
						End Site
						{
							OFFSET 0.0 0.0 0.0
						}
					}
				}
			}
		}
	}
}
MOTION
Frames:	6
Frame Time:	0.0333333
0.000000 0.000000 0.000000 0.000000 0.000000 -0.000000 134.700000 90.175500 -23.560500 88.886200 -1.527270 -0.206398 15.735700 0.000005 -0.000001 88.680900 80.665400 -87.890200 8.984550 -0.406207 -0.000000 10.901600 -0.405009 1.619230 16.377300 -0.000001 -0.000001 2.836640 -4.800940 1.242480 6.456720 -0.000001 -0.000000 -2.761780 -5.174870 0.374857 12.994200 -0.242716 4.980390 -90.980500 3.671780 -75.038000 5.348090 -0.000007 -0.000001 -65.799300 25.701900 -14.214000 24.328600 0.000019 0.000005 11.620900 17.918400 -33.759900 22.291600 -0.000001 0.000005 16.136900 5.237080 1.771920 12.994500 -0.242716 -4.980390 88.711400 8.728550 -81.568500 -5.348130 -0.000001 -0.000004 -56.961100 31.502500 -20.971500 -24.328900 0.000322 -0.000009 2.553350 4.248540 -31.056300 -22.291500 -0.000108 -0.000004 18.447900 5.422400 -3.679560 -2.192480 -6.469440 -0.000000 -172.852000 -6.807160 -17.468800 39.081100 -0.000007 -0.000012 0.107250 -0.071927 56.150800 40.985400 -0.000006 -0.000013 0.439303 -4.608290 -62.346400 11.754300 -0.000000 0.000003 -0.001647 -0.024213 -17.561300 -2.192510 6.469440 -0.000001 -178.229000 19.413400 162.260000 -39.081100 -0.002282 -0.040193 -0.130680 0.189649 35.238000 -40.985400 0.000008 0.000006 6.340020 7.019320 -68.915300 -11.754300 -0.000006 -0.000006 -0.002741 -0.037638 -18.103700
0.000000 0.000000 0.000000 0.000000 0.000000 -0.000000 134.311000 90.347800 -22.213100 89.265100 -1.985790 -0.270804 15.735700 0.000005 -0.000001 89.391400 80.674300 -88.659900 8.984550 -0.406207 -0.000000 10.885800 -0.176791 1.479050 16.377300 -0.000001 -0.000001 2.966240 -4.922890 1.364690 6.456720 -0.000001 -0.000000 -2.580390 -5.356540 0.195421 12.994200 -0.242716 4.980390 -91.037500 3.850950 -74.909600 5.348090 -0.000007 -0.000001 -66.997600 25.512800 -12.340400 24.328600 0.000019 0.000005 11.229800 18.162600 -32.494900 22.291600 -0.000001 0.000005 16.054300 5.234330 1.843280 12.994500 -0.242716 -4.980390 88.720900 8.716520 -81.618600 -5.348130 -0.000001 -0.000004 -55.644800 31.557800 -22.902400 -24.328900 0.000322 -0.000009 2.756570 4.568540 -31.162400 -22.291500 -0.000108 -0.000004 18.651500 5.426610 -3.822290 -2.192480 -6.469440 -0.000000 -174.005000 -7.369270 -19.199300 39.081100 -0.000007 -0.000012 0.098169 -0.063900 56.937400 40.985400 -0.000006 -0.000013 0.608833 -3.500930 -64.154500 11.754300 -0.000000 0.000003 -0.001667 -0.024467 -17.571700 -2.192510 6.469440 -0.000001 -178.631000 19.798800 163.588000 -39.081100 -0.002282 -0.040193 -0.107058 0.160325 34.539200 -40.985400 0.000008 0.000006 7.007320 7.619280 -69.745900 -11.754300 -0.000006 -0.000006 -0.002557 -0.035478 -18.015800
0.000000 0.000000 0.000000 0.000000 0.000000 -0.000000 134.011000 90.598400 -20.973800 89.570800 -2.160610 -0.457189 15.735700 0.000005 -0.000001 89.690200 80.672200 -89.026500 8.984550 -0.406207 -0.000000 10.890100 -0.082084 1.334500 16.377300 -0.000001 -0.000001 3.016340 -5.075590 1.401670 6.456720 -0.000001 -0.000000 -2.580210 -5.619860 0.202033 12.994200 -0.242716 4.980390 -91.031600 3.806440 -74.824500 5.348090 -0.000007 -0.000001 -68.234600 25.553000 -10.924500 24.328600 0.000019 0.000005 10.961300 18.947300 -30.816100 22.291600 -0.000001 0.000005 15.778900 5.230330 1.947360 12.994500 -0.242716 -4.980390 88.735800 8.628930 -81.632300 -5.348130 -0.000001 -0.000004 -55.132500 30.907400 -24.263900 -24.328900 0.000322 -0.000009 2.860130 4.686380 -31.455600 -22.291500 -0.000108 -0.000004 18.832400 5.425080 -3.771630 -2.192480 -6.469440 -0.000000 -175.370000 -7.735440 -20.602200 39.081100 -0.000007 -0.000012 0.082958 -0.058247 54.924500 40.985400 -0.000006 -0.000013 -0.012496 -2.009040 -64.827300 11.754300 -0.000000 0.000003 -0.001893 -0.027368 -17.689600 -2.192510 6.469440 -0.000001 -178.972000 20.399600 164.971000 -39.081100 -0.002282 -0.040193 -0.077400 0.122794 33.311000 -40.985400 0.000008 0.000006 7.603830 8.194550 -70.234100 -11.754300 -0.000006 -0.000006 -0.002627 -0.036312 -18.049800
0.000000 0.000000 0.000000 0.000000 0.000000 -0.000000 133.751000 90.841400 -19.790300 89.694600 -2.085920 -0.740978 15.735700 0.000005 -0.000001 89.879000 80.674500 -89.236700 8.984550 -0.406207 -0.000000 10.885400 -0.021659 1.285870 16.377300 -0.000001 -0.000001 2.960600 -5.333200 1.482110 6.456720 -0.000001 -0.000000 -2.618720 -5.949800 0.117124 12.994200 -0.242716 4.980390 -91.003800 3.707050 -74.837700 5.348090 -0.000007 -0.000001 -69.207000 26.039500 -9.994460 24.328600 0.000019 0.000005 10.682300 19.935300 -28.953800 22.291600 -0.000001 0.000005 15.134500 5.228270 2.000590 12.994500 -0.242716 -4.980390 88.776200 8.381390 -81.662300 -5.348130 -0.000001 -0.000004 -55.290600 29.903600 -24.892600 -24.328900 0.000322 -0.000009 2.711450 4.349000 -31.996900 -22.291500 -0.000108 -0.000004 19.129800 5.429240 -3.913310 -2.192480 -6.469440 -0.000000 -176.709000 -8.359490 -21.642600 39.081100 -0.000007 -0.000012 0.063221 -0.051912 50.607600 40.985400 -0.000006 -0.000013 -0.533849 -0.778512 -65.133200 11.754300 -0.000000 0.000003 -0.001701 -0.024907 -17.589600 -2.192510 6.469440 -0.000001 -179.164000 21.186100 166.364000 -39.081100 -0.002282 -0.040193 -0.066540 0.112454 31.841800 -40.985400 0.000008 0.000006 7.862410 8.857040 -70.532400 -11.754300 -0.000006 -0.000006 -0.002408 -0.033707 -17.943800
0.000000 0.000000 0.000000 0.000000 0.000000 -0.000000 133.540000 91.067600 -18.657200 89.766300 -1.971270 -1.174900 15.735700 0.000005 -0.000001 90.289100 80.711400 -89.682000 8.984550 -0.406207 -0.000000 10.810600 0.109174 1.203300 16.377300 -0.000001 -0.000001 2.855350 -5.624020 1.594430 6.456720 -0.000001 -0.000000 -2.681640 -6.341420 0.095613 12.994200 -0.242716 4.980390 -91.004400 3.727920 -74.909700 5.348090 -0.000007 -0.000001 -69.832400 26.664500 -9.404860 24.328600 0.000019 0.000005 10.760300 21.512200 -27.396500 22.291600 -0.000001 0.000005 14.155200 5.221640 2.170330 12.994500 -0.242716 -4.980390 88.792100 8.250100 -81.640500 -5.348130 -0.000001 -0.000004 -55.393900 29.036400 -25.085900 -24.328900 0.000322 -0.000009 2.512670 3.918540 -32.718700 -22.291500 -0.000108 -0.000004 19.734500 5.432040 -4.009490 -2.192480 -6.469440 -0.000000 -178.178000 -9.538130 -22.382800 39.081100 -0.000007 -0.000012 0.046075 -0.047079 44.380800 40.985400 -0.000006 -0.000013 -1.010240 -0.060855 -64.549200 11.754300 -0.000000 0.000003 -0.001574 -0.023252 -17.522200 -2.192510 6.469440 -0.000001 -179.290000 22.256000 167.604000 -39.081100 -0.002282 -0.040193 -0.054058 0.098212 30.286600 -40.985400 0.000008 0.000006 8.101330 9.701370 -70.758000 -11.754300 -0.000006 -0.000006 -0.002488 -0.034670 -17.983000
0.000000 0.000000 0.000000 0.000000 0.000000 -0.000000 133.405000 91.218100 -17.497700 89.782400 -1.886680 -1.640620 15.735700 0.000005 -0.000001 90.768600 80.735200 -90.226400 8.984550 -0.406207 -0.000000 10.760900 0.260922 1.059230 16.377300 -0.000001 -0.000001 2.705380 -5.839660 1.693170 6.456720 -0.000001 -0.000000 -2.854150 -6.689060 0.209979 12.994200 -0.242716 4.980390 -91.035400 3.840290 -74.899000 5.348090 -0.000007 -0.000001 -70.210800 27.060800 -8.996130 24.328600 0.000019 0.000005 11.108700 23.218200 -26.476000 22.291600 -0.000001 0.000005 13.214200 5.213750 2.372840 12.994500 -0.242716 -4.980390 88.789000 8.274080 -81.643200 -5.348130 -0.000001 -0.000004 -55.108900 28.658400 -25.187800 -24.328900 0.000322 -0.000009 2.226330 3.402650 -33.238400 -22.291500 -0.000108 -0.000004 20.386100 5.439290 -4.260550 -2.192480 -6.469440 -0.000000 -179.835000 -11.268100 -22.904700 39.081100 -0.000007 -0.000012 0.032632 -0.043180 37.078200 40.985400 -0.000006 -0.000013 -1.098140 0.412456 -62.846600 11.754300 -0.000000 0.000003 -0.001536 -0.022759 -17.502200 -2.192510 6.469440 -0.000001 -179.414000 23.318200 168.698000 -39.081100 -0.002282 -0.040193 -0.042827 0.083340 28.965600 -40.985400 0.000008 0.000006 8.344510 10.577600 -71.097800 -11.754300 -0.000006 -0.000006 -0.002468 -0.034432 -17.973300
